<svg xmlns="http://www.w3.org/2000/svg" width="40" height="40" viewBox="0 0 25 25">
  <g fill="none" fill-rule="evenodd">
    <g>
      <g>
        <g fill="#000" fill-opacity="0.4" transform="translate(-920 -160) translate(920 160)">
          <rect width="25" height="25" rx="12.5"></rect>
        </g>
        <path fill="#FFF" d="M12.5 6c.449 0 .813.364.813.813l-.001 4.874h4.876c.448 0 .812.364.812.813 0 .449-.364.813-.813.813l-4.875-.001v4.876c0 .448-.363.812-.812.812-.449 0-.813-.364-.813-.813v-4.875H6.813c-.45 0-.813-.363-.813-.812 0-.449.364-.813.813-.813h4.874V6.813c0-.45.364-.813.813-.813z" transform="translate(-920 -160) translate(920 160) rotate(-135 12.5 12.5)"></path>
      </g>
    </g>
  </g>
</svg>