<svg width="25" height="21" viewBox="0 0 25 21" fill="none" xmlns="http://www.w3.org/2000/svg">
<path d="M17.3383 2.57145C16.9613 7.46865 15.3383 10.4291 13.8844 13.0798C13.2937 14.1587 12.7211 15.2024 12.304 16.2855C11.8863 15.2008 11.3118 14.1566 10.7187 13.0762C9.26229 10.4281 7.63436 7.4676 7.25788 2.57145H17.3383ZM12.4996 12.8572C11.3795 10.0296 10.6589 6.68062 10.6505 3.42825H9.27357C9.64612 6.86805 11.1226 11.1762 12.4996 12.8572ZM12.2986 16.7144C11.7937 16.7144 10.1187 19.5205 8.06426 19.5205V21H16.5319V19.5205C14.4157 19.5205 12.8054 16.7144 12.2986 16.7144ZM21.3706 15.835C19.8942 15.1384 18.6231 15.6266 17.8388 16.1574C18.6231 15.625 19.5265 14.5483 19.5182 12.8572C16.7902 13.9975 17.1015 15.5998 16.6064 16.5328C16.275 17.1607 15.5466 16.8341 15.5466 16.8341L15.3221 17.221C15.7064 17.4331 16.3638 17.5712 17.129 17.5712C18.5054 17.5712 20.2344 17.1218 21.3706 15.835ZM23.7897 11.3993C22.3246 11.5064 21.5446 12.5722 21.1378 13.3481C21.5446 12.5722 21.7893 11.2014 21.0848 9.85687C19.378 11.9894 20.2878 13.1276 20.277 14.0926C20.2731 14.5645 19.7574 14.5535 19.7574 14.5535L19.7652 14.9998C20.0981 14.9546 23.1094 14.207 23.7897 11.3993ZM24.9971 7.06072C23.7103 7.52903 23.2829 8.68035 23.1094 9.4521C23.2829 8.68035 23.154 7.40355 22.1917 6.4281C21.1863 8.7024 22.2819 9.44685 22.5103 10.28C22.6221 10.6879 22.153 10.9462 22.153 10.9462L22.4716 11.1426C22.5388 11.1111 25.0927 9.67838 24.9971 7.06072ZM24.8304 2.99985C23.829 3.759 23.7025 4.92345 23.75 5.66055C23.7035 4.9245 23.3123 3.79312 22.2241 3.17415C21.9314 5.47365 23.077 5.85112 23.4907 6.53573C23.6922 6.87068 23.5162 7.28595 23.5162 7.28595L23.8309 7.2639C23.8309 7.2639 23.8598 7.11952 24.0187 6.7599C24.3412 6.02647 25.4103 5.24003 24.8304 2.99985ZM22.7226 0C22.7226 0 22.4353 1.09095 22.6755 1.91992C22.9324 2.80455 23.5942 3.42877 23.5942 3.42877C23.5942 3.42877 23.952 2.46068 23.6986 1.50727C23.4652 0.63 22.7236 0 22.7236 0H22.7226ZM9.67651 17.22L9.452 16.8331C9.452 16.8331 8.72455 17.1596 8.39171 16.5322C7.89661 15.5993 8.20837 13.9975 5.47994 12.8572C5.4721 14.5477 6.37553 15.6256 7.15985 16.1563C6.37553 15.6245 5.10445 15.1378 3.62798 15.8345C4.76328 17.1208 6.49318 17.5712 7.86965 17.5712C8.63484 17.5702 9.29122 17.4326 9.67651 17.22ZM5.23338 14.9998L5.24122 14.5535C5.24122 14.5535 4.72553 14.564 4.72161 14.0926C4.71181 13.1271 5.62063 11.991 3.91328 9.8574C3.20936 11.2014 3.45445 12.5732 3.86034 13.3486C3.45445 12.5722 2.67308 11.5064 1.20838 11.3993C1.88975 14.2081 4.90053 14.9557 5.23338 14.9998ZM2.527 11.1426L2.84563 10.9462C2.84563 10.9462 2.37651 10.6864 2.48828 10.2795C2.71671 9.44632 3.8123 8.7024 2.8069 6.42862C1.84465 7.40355 1.71475 8.68035 1.88975 9.4521C1.71573 8.68035 1.28975 7.52903 0.00151104 7.06072C-0.0950576 9.67838 2.45886 11.1111 2.527 11.1426ZM0.980923 6.76042C1.13975 7.11952 1.16818 7.26442 1.16818 7.26442L1.48338 7.28542C1.48338 7.28542 1.30691 6.87067 1.50887 6.53625C1.9221 5.85165 3.06622 5.47312 2.77455 3.1752C1.68485 3.79312 1.29465 4.92345 1.24808 5.66002C1.29465 4.92292 1.16818 3.75742 0.16867 2.99985C-0.411232 5.2395 0.657394 6.02595 0.980923 6.76042ZM1.29955 1.5078C1.04661 2.46068 1.40347 3.42877 1.40347 3.42877C1.40347 3.42877 2.06573 2.80402 2.32259 1.91992C2.56328 1.09043 2.27602 0 2.27602 0C2.27602 0 1.53338 0.63 1.29955 1.5078Z" fill="url(#paint0_linear_29_97)"/>
<defs>
<linearGradient id="paint0_linear_29_97" x1="2500.09" y1="404.103" x2="256.982" y2="2046.81" gradientUnits="userSpaceOnUse">
<stop stop-color="#F8CF49"/>
<stop offset="1" stop-color="#D89E5F"/>
</linearGradient>
</defs>
</svg>
