<svg width="8" height="13" viewBox="0 0 8 13" fill="none" xmlns="http://www.w3.org/2000/svg">
<path d="M0.287986 5.85599L6.32199 0.265997C6.51266 0.0941123 6.76027 -0.00101863 7.01699 -0.00101861C7.2737 -0.00101859 7.52131 0.0941124 7.71199 0.265997C7.8026 0.347038 7.87509 0.446288 7.92472 0.557261C7.97435 0.668233 8 0.788431 8 0.909996C8 1.03156 7.97435 1.15176 7.92472 1.26273C7.87509 1.3737 7.8026 1.47296 7.71199 1.554L2.99199 6.5L7.71199 11.446C7.80243 11.527 7.87478 11.6262 7.92431 11.7371C7.97384 11.848 7.99944 11.9681 7.99944 12.0895C7.99944 12.2109 7.97384 12.331 7.92431 12.4419C7.87478 12.5528 7.80243 12.652 7.71199 12.733C7.52121 12.9047 7.27364 12.9997 7.01699 12.9997C6.76033 12.9997 6.51276 12.9047 6.32199 12.733L0.287986 7.14299C0.0959864 6.96599 -1.37573e-05 6.73299 -1.37369e-05 6.5C0.00066672 6.37854 0.0266243 6.25856 0.0762078 6.14768C0.125791 6.03681 0.197914 5.93747 0.287986 5.85599Z" fill="#4E4964"/>
</svg>
